Coordinates
version=1
nRows=8
nColumns=28
inDegrees=yes

Units are S.I. units (second, meters, Newtons, ...)
Angles are in degrees.

endheader
time	pelvis_tilt	pelvis_list	pelvis_rotation	pelvis_tx	pelvis_ty	pelvis_tz	hip_flexion_r	hip_adduction_r	hip_rotation_r	knee_angle_r	ankle_angle_r	subtalar_angle_r	mtp_angle_r	hip_flexion_l	hip_adduction_l	hip_rotation_l	knee_angle_l	socket_flexion	socket_adduction	socket_rotation	socket_tx	socket_ty	socket_tz	foot_flex	lumbar_extension	lumbar_bending	lumbar_rotation
      0.65416667	     -0.58589008	     -3.72109475	      4.14767212	     -0.04459553	      0.97804418	      0.27022962	     26.49864368	      7.82816478	      1.76227562	     -6.33217168	     16.56004189	    -25.67486391	    -10.76202296	    -20.54254947	     -2.94456959	     -0.46469547	     -9.14418463	      0.00000000	      0.00000000	      0.00000000	      0.00000000	      0.00000000	      0.00000000	     10.07611991	    -10.34088535	      2.37699492	      0.43564309
      0.65833333	     -0.52387326	     -3.86993833	      4.27246067	     -0.03888054	      0.97712985	      0.26977901	     26.58825883	      8.06881923	      1.90411135	     -6.93869508	     16.41927573	    -25.83739740	    -10.67810243	    -20.83408794	     -3.13993474	     -0.42660812	     -9.36238652	      0.00000000	      0.00000000	      0.00000000	      0.00000000	      0.00000000	      0.00000000	     10.19726558	    -10.41110032	      2.68223558	      0.33800266
      0.66250000	     -0.49981788	     -3.97293333	      4.43588389	     -0.03322988	      0.97624017	      0.26927043	     26.68518261	      8.23991162	      2.13241145	     -7.50686453	     16.26448270	    -25.88513191	    -10.63653953	    -21.03441269	     -3.30058040	     -0.33212192	     -9.64838804	      0.00000000	      0.00000000	      0.00000000	      0.00000000	      0.00000000	      0.00000000	     10.19269605	    -10.45702201	      2.92242714	      0.29482461
      0.66666667	     -0.38592935	     -4.11657050	      4.48288517	     -0.02747002	      0.97538320	      0.26890615	     26.82635947	      8.50563181	      2.14034164	     -8.35278536	     15.85946941	    -26.23597716	    -10.36834287	    -21.38508622	     -3.46203355	     -0.45026354	     -9.88009598	      0.00000000	      0.00000000	      0.00000000	      0.00000000	      0.00000000	      0.00000000	     10.26469239	    -10.58905430	      3.23697972	      0.07999891
      0.67083333	     -0.36326742	     -4.22300056	      4.65152564	     -0.02178590	      0.97454698	      0.26842407	     26.92435589	      8.68009833	      2.39658190	     -8.95110179	     15.66166496	    -26.26896101	    -10.30169959	    -21.56491689	     -3.62971603	     -0.33101127	    -10.20400058	      0.00000000	      0.00000000	      0.00000000	      0.00000000	      0.00000000	      0.00000000	     10.25004973	    -10.63035180	      3.48088016	      0.05170952
      0.67500000	     -0.25469616	     -4.37096914	      4.68891936	     -0.01596156	      0.97372868	      0.26807172	     27.07238148	      8.94839142	      2.39325548	     -9.82446260	     15.02603951	    -26.71461487	     -9.77900894	    -21.89594883	     -3.79223548	     -0.46697725	    -10.46367764	      0.00000000	      0.00000000	      0.00000000	      0.00000000	      0.00000000	      0.00000000	     10.29271081	    -10.74034639	      3.79428476	     -0.15295422
      0.67916667	     -0.23522152	     -4.48224534	      4.86552769	     -0.01024282	      0.97297528	      0.26756909	     27.16228250	      9.12009606	      2.65656899	    -10.42540336	     14.82649484	    -26.73439041	     -9.70765865	    -22.02920992	     -3.96684057	     -0.35758274	    -10.85723656	      0.00000000	      0.00000000	      0.00000000	      0.00000000	      0.00000000	      0.00000000	     10.22678904	    -10.78326704	      4.04319384	     -0.16300549
      0.68333333	     -0.07141394	     -4.63655549	      4.96455530	     -0.00424710	      0.97225518	      0.26700707	     27.25061350	      9.30863604	      2.31350733	    -11.21280229	     11.94868065	    -28.20493371	     -1.17389512	    -22.39319622	     -4.15320976	     -0.43585081	    -11.16932117	      0.00000000	      0.00000000	      0.00000000	      0.00000000	      0.00000000	      0.00000000	     10.24911809	    -10.93487270	      4.40585523	     -0.43697933
